<?xml version="1.0" encoding="utf-8"?><svg viewBox="0 0 25 25" xmlns="http://www.w3.org/2000/svg" xmlns:xlink="http://www.w3.org/1999/xlink"><style>:root>svg{display:none}:root>svg:target{display:block}</style><svg fill="none" viewBox="0 0 25 24" id="chat" xmlns="http://www.w3.org/2000/svg"><path fill-rule="evenodd" clip-rule="evenodd" d="M4.184 17.584a1.563 1.563 0 01.449 1.252 17.139 17.139 0 01-.622 3.125c2.18-.505 3.51-1.09 4.116-1.395a1.562 1.562 0 011.109-.116c1.065.284 2.162.427 3.264.425 6.244 0 10.938-4.386 10.938-9.375 0-4.987-4.694-9.375-10.938-9.375-6.244 0-10.938 4.388-10.938 9.375 0 2.294.965 4.422 2.622 6.084zm-.77 6.102c-.37.073-.742.14-1.114.201-.312.05-.55-.274-.427-.565.14-.327.266-.66.382-.995l.004-.016c.388-1.125.704-2.419.82-3.623C1.16 16.765 0 14.25 0 11.5 0 5.46 5.597.562 12.5.562S25 5.46 25 11.5c0 6.04-5.597 10.938-12.5 10.938a14.157 14.157 0 01-3.667-.479c-.813.411-2.561 1.16-5.419 1.727z" fill="#FBFBFB"/></svg><svg viewBox="0 0 16 16" class="bbi bbi-chat-left-text" fill="#fff" id="chat-left-text" xmlns="http://www.w3.org/2000/svg"><path fill-rule="evenodd" d="M14 1H2a1 1 0 00-1 1v11.586l2-2A2 2 0 014.414 11H14a1 1 0 001-1V2a1 1 0 00-1-1zM2 0a2 2 0 00-2 2v12.793a.5.5 0 00.854.353l2.853-2.853A1 1 0 014.414 12H14a2 2 0 002-2V2a2 2 0 00-2-2H2z"/><path fill-rule="evenodd" d="M3 3.5a.5.5 0 01.5-.5h9a.5.5 0 010 1h-9a.5.5 0 01-.5-.5zM3 6a.5.5 0 01.5-.5h9a.5.5 0 010 1h-9A.5.5 0 013 6zm0 2.5a.5.5 0 01.5-.5h5a.5.5 0 010 1h-5a.5.5 0 01-.5-.5z"/></svg><svg viewBox="0 0 16 16" class="cbi cbi-cursor" fill="#fff" id="cursor" xmlns="http://www.w3.org/2000/svg"><path fill-rule="evenodd" d="M14.082 2.182a.5.5 0 01.103.557L8.528 15.467a.5.5 0 01-.917-.007L5.57 10.694.803 8.652a.5.5 0 01-.006-.916l12.728-5.657a.5.5 0 01.556.103zM2.25 8.184l3.897 1.67a.5.5 0 01.262.263l1.67 3.897L12.743 3.52 2.25 8.184z"/></svg><svg viewBox="0 0 16 16" fill="none" id="globe" xmlns="http://www.w3.org/2000/svg"><path fill-rule="evenodd" clip-rule="evenodd" d="M0 8a8 8 0 1116 0A8 8 0 010 8zm7.5-6.923c-.67.204-1.335.82-1.887 1.855A7.97 7.97 0 005.145 4H7.5V1.077zM4.09 4H2.255a7.025 7.025 0 013.072-2.472 6.7 6.7 0 00-.597.933c-.247.464-.462.98-.64 1.539zm-.582 3.5h-2.49c.062-.89.291-1.733.656-2.5H3.82c-.18.822-.285 1.659-.312 2.5zM4.847 5H7.5v2.5H4.51A12.5 12.5 0 014.846 5h.001zM8.5 5v2.5h2.99c-.028-.843-.14-1.68-.337-2.5H8.5zM4.51 8.5H7.5V11H4.847a12.5 12.5 0 01-.338-2.5h.001zm3.99 0V11h2.653c.187-.765.306-1.608.338-2.5H8.5zM5.145 12H7.5v2.923c-.67-.204-1.335-.82-1.887-1.855A7.972 7.972 0 015.145 12zm.182 2.472a6.694 6.694 0 01-.597-.933A9.267 9.267 0 014.09 12H2.255a7.024 7.024 0 003.072 2.472zM3.82 11H1.674a6.958 6.958 0 01-.656-2.5h2.49c.03.877.138 1.718.312 2.5zm6.853 3.472A7.025 7.025 0 0013.745 12H11.91a9.27 9.27 0 01-.64 1.539 6.688 6.688 0 01-.597.933zM8.5 12h2.355c-.13.367-.286.724-.468 1.068-.552 1.035-1.218 1.65-1.887 1.855V12zm3.68-1h2.146c.365-.767.594-1.61.656-2.5h-2.49a13.653 13.653 0 01-.312 2.5zm2.802-3.5h-2.49A13.653 13.653 0 0012.18 5h2.146c.365.767.594 1.61.656 2.5zM11.27 2.461c.247.464.462.98.64 1.539h1.835a7.024 7.024 0 00-3.072-2.472c.218.284.418.598.597.933zM10.855 4H8.5V1.077c.67.204 1.335.82 1.887 1.855.173.324.33.682.468 1.068z" fill="#6C757D"/></svg><svg fill="none" viewBox="0 0 15 25" id="logo" xmlns="http://www.w3.org/2000/svg"><path d="M13.294 24.984h-.583a.867.867 0 01-.607-.246.833.833 0 01-.251-.595v-7.02H3.104v7.02c0 .223-.09.437-.251.595a.867.867 0 01-.607.246h-.572a.867.867 0 01-.607-.246.833.833 0 01-.251-.595V7.978l2.288 1.495v5.817h8.748V9.473l2.3-1.495v16.165c0 .223-.09.437-.251.595a.867.867 0 01-.607.246z" fill="#fff"/><path d="M.095 4.194l7.39 4.193 7.388-4.193L7.484 0 .095 4.194z" fill="#fff"/></svg><svg fill="none" viewBox="0 0 16 12" id="mail" xmlns="http://www.w3.org/2000/svg"><path fill-rule="evenodd" clip-rule="evenodd" d="M0 2a2 2 0 012-2h12a2 2 0 012 2v8a2 2 0 01-2 2H2a2 2 0 01-2-2V2zm2-1a1 1 0 00-1 1v.217l7 4.2 7-4.2V2a1 1 0 00-1-1H2zm13 2.383l-4.758 2.855L15 9.114V3.383zm-.034 6.878L9.271 6.82 8 7.583 6.728 6.82l-5.694 3.44A1 1 0 002 11h12a1 1 0 00.966-.739zM1 9.114l4.758-2.876L1 3.383V9.114z" fill="#6C757D"/></svg><svg fill="none" viewBox="0 0 25 19" id="people" xmlns="http://www.w3.org/2000/svg"><path fill-rule="evenodd" clip-rule="evenodd" d="M23.438 18.875s1.562 0 1.562-1.563c0-1.562-1.563-6.25-7.813-6.25s-7.812 4.688-7.812 6.25c0 1.563 1.563 1.563 1.563 1.563h12.5zm-12.466-1.563h12.431a.55.55 0 00.022-.003l.012-.003c-.003-.412-.26-1.61-1.187-2.687-.863-1.011-2.378-1.994-5.063-1.994-2.682 0-4.198.984-5.062 1.994-.927 1.078-1.186 2.276-1.188 2.687.012.002.023.005.035.006zm6.216-9.375a3.125 3.125 0 100-6.25 3.125 3.125 0 000 6.25zm4.687-3.125a4.687 4.687 0 11-9.374 0 4.687 4.687 0 019.374 0zM10.838 11.5a9.185 9.185 0 00-1.922-.386 11.477 11.477 0 00-1.104-.052C1.563 11.063 0 15.75 0 17.313c0 1.043.52 1.563 1.563 1.563H8.15a3.497 3.497 0 01-.338-1.563c0-1.578.59-3.19 1.704-4.537.38-.46.822-.89 1.322-1.275zm-3.15 1.125c-2.607.031-4.086 1-4.938 1.994-.933 1.084-1.188 2.286-1.188 2.694H6.25c0-1.633.505-3.26 1.438-4.688zM2.343 5.594a4.687 4.687 0 119.375 0 4.687 4.687 0 01-9.375 0zM7.03 2.469a3.125 3.125 0 100 6.25 3.125 3.125 0 000-6.25z" fill="#FBFBFB"/></svg><svg fill="none" viewBox="0 0 16 12" id="people-b" xmlns="http://www.w3.org/2000/svg"><path fill-rule="evenodd" clip-rule="evenodd" d="M15 12s1 0 1-1-1-4-5-4-5 3-5 4 1 1 1 1h8zm-7.978-1h7.956l.014-.002.008-.002c-.002-.264-.167-1.03-.76-1.72C13.688 8.629 12.718 8 11 8c-1.717 0-2.687.63-3.24 1.276-.593.69-.759 1.457-.76 1.72l.022.004zM11 5a2 2 0 100-4 2 2 0 000 4zm3-2a3 3 0 11-5.999 0A3 3 0 0114 3zM6.936 7.28a5.88 5.88 0 00-1.23-.247A7.348 7.348 0 005 7c-4 0-5 3-5 4 0 .667.333 1 1 1h4.216A2.238 2.238 0 015 11c0-1.01.377-2.042 1.09-2.904.243-.294.526-.569.846-.816zM4.92 8c-1.668.02-2.615.64-3.16 1.276C1.163 9.97 1 10.739 1 11h3c0-1.045.323-2.086.92-3zM1.5 3.5a3 3 0 116 0 3 3 0 01-6 0zm3-2a2 2 0 100 4 2 2 0 000-4z" fill="#6C757D"/></svg><svg fill="none" viewBox="0 0 19 19" id="person" xmlns="http://www.w3.org/2000/svg"><path fill-rule="evenodd" clip-rule="evenodd" d="M12.625 4.813a3.125 3.125 0 11-6.25 0 3.125 3.125 0 016.25 0zM9.5 9.5a4.688 4.688 0 100-9.375 4.688 4.688 0 000 9.375zm9.375 7.813c0 1.562-1.563 1.562-1.563 1.562H1.688s-1.562 0-1.562-1.563c0-1.562 1.563-6.25 9.375-6.25 7.813 0 9.375 4.688 9.375 6.25zm-1.563-.007c-.001-.384-.24-1.54-1.3-2.6-1.018-1.018-2.935-2.081-6.512-2.081-3.578 0-5.494 1.063-6.513 2.081-1.059 1.06-1.296 2.216-1.3 2.6h15.626z" fill="#FBFBFB"/></svg><svg fill="none" viewBox="0 0 16 16" id="phone" xmlns="http://www.w3.org/2000/svg"><path fill-rule="evenodd" clip-rule="evenodd" d="M3.646 1.324a.678.678 0 00-1.015-.063L1.597 2.296c-.483.484-.66 1.17-.45 1.77a17.567 17.567 0 004.168 6.608 17.568 17.568 0 006.608 4.168c.601.211 1.286.033 1.77-.45l1.034-1.034a.678.678 0 00-.063-1.015l-2.307-1.794a.678.678 0 00-.58-.122l-2.19.547a1.745 1.745 0 01-1.657-.459L5.474 8.058a1.745 1.745 0 01-.46-1.657l.548-2.19a.678.678 0 00-.122-.58L3.646 1.324zM1.876.507A1.745 1.745 0 014.488.67l1.794 2.306c.33.423.445.974.315 1.494L6.05 6.66a.678.678 0 00.178.643L8.685 9.76a.678.678 0 00.644.178l2.19-.547a1.745 1.745 0 011.493.315l2.306 1.794c.83.645.905 1.87.163 2.611l-1.034 1.034c-.74.74-1.846 1.065-2.877.702a18.632 18.632 0 01-7.01-4.42A18.634 18.634 0 01.14 4.418c-.362-1.03-.037-2.137.703-2.877L1.877.507z" fill="#6C757D"/></svg></svg>