<svg viewBox="0 0 19 19" fill="none" xmlns="http://www.w3.org/2000/svg"><path fill-rule="evenodd" clip-rule="evenodd" d="M12.625 4.813a3.125 3.125 0 1 1-6.25 0 3.125 3.125 0 0 1 6.25 0ZM9.5 9.5a4.688 4.688 0 1 0 0-9.375 4.688 4.688 0 0 0 0 9.375Zm9.375 7.813c0 1.562-1.563 1.562-1.563 1.562H1.688s-1.562 0-1.562-1.563c0-1.562 1.563-6.25 9.375-6.25 7.813 0 9.375 4.688 9.375 6.25Zm-1.563-.007c-.001-.384-.24-1.54-1.3-2.6-1.018-1.018-2.935-2.081-6.512-2.081-3.578 0-5.494 1.063-6.513 2.081-1.059 1.06-1.296 2.216-1.3 2.6h15.626Z" fill="#FBFBFB"/></svg>