<svg viewBox="0 0 25 19" fill="none" xmlns="http://www.w3.org/2000/svg"><path fill-rule="evenodd" clip-rule="evenodd" d="M23.438 18.875s1.562 0 1.562-1.563c0-1.562-1.563-6.25-7.813-6.25s-7.812 4.688-7.812 6.25c0 1.563 1.563 1.563 1.563 1.563h12.5Zm-12.466-1.563h12.431a.55.55 0 0 0 .022-.003l.012-.003c-.003-.412-.26-1.61-1.187-2.687-.863-1.011-2.378-1.994-5.063-1.994-2.682 0-4.198.984-5.062 1.994-.927 1.078-1.186 2.276-1.188 2.687.012.002.023.005.035.006Zm6.216-9.375a3.125 3.125 0 1 0 0-6.25 3.125 3.125 0 0 0 0 6.25Zm4.687-3.125a4.687 4.687 0 1 1-9.374 0 4.687 4.687 0 0 1 9.374 0ZM10.838 11.5a9.185 9.185 0 0 0-1.922-.386 11.477 11.477 0 0 0-1.104-.052C1.563 11.063 0 15.75 0 17.313c0 1.043.52 1.563 1.563 1.563H8.15a3.497 3.497 0 0 1-.338-1.563c0-1.578.59-3.19 1.704-4.537.38-.46.822-.89 1.322-1.275Zm-3.15 1.125c-2.607.031-4.086 1-4.938 1.994-.933 1.084-1.188 2.286-1.188 2.694H6.25c0-1.633.505-3.26 1.438-4.688ZM2.343 5.594a4.687 4.687 0 1 1 9.375 0 4.687 4.687 0 0 1-9.375 0ZM7.03 2.469a3.125 3.125 0 1 0 0 6.25 3.125 3.125 0 0 0 0-6.25Z" fill="#FBFBFB"/></svg>