<svg viewBox="0 0 25 24" width="25" height="24" fill="none" xmlns="http://www.w3.org/2000/svg"><path fill-rule="evenodd" clip-rule="evenodd" d="M4.184 17.584a1.563 1.563 0 0 1 .449 1.252 17.139 17.139 0 0 1-.622 3.125c2.18-.505 3.51-1.09 4.116-1.395a1.562 1.562 0 0 1 1.109-.116c1.065.284 2.162.427 3.264.425 6.244 0 10.938-4.386 10.938-9.375 0-4.987-4.694-9.375-10.938-9.375-6.244 0-10.938 4.388-10.938 9.375 0 2.294.965 4.422 2.622 6.084Zm-.77 6.102c-.37.073-.742.14-1.114.201-.312.05-.55-.274-.427-.565.14-.327.266-.66.382-.995l.004-.016c.388-1.125.704-2.419.82-3.623C1.16 16.765 0 14.25 0 11.5 0 5.46 5.597.562 12.5.562S25 5.46 25 11.5c0 6.04-5.597 10.938-12.5 10.938a14.157 14.157 0 0 1-3.667-.479c-.813.411-2.561 1.16-5.419 1.727Z" fill="#FBFBFB"/></svg>